<svg version="1.1" xmlns="http://www.w3.org/2000/svg" width="371" height="512" viewBox="0 0 371 512"><title>foursquare</title><path d="M285.714 124l10.572-55.428c2-9.143-4.857-16.285-12.572-16.285h-203.429c-9.143 0-15.428 8.285-15.428 15.428v314.572c0 0.857 0.857 1.143 1.715 0.286 74.857-90 83.143-100.572 83.143-100.572 8.572-10 12-11.714 24.572-11.714h68.286c9.428 0 14.857-8 15.714-12.572s8.857-46.286 10.572-54.572-6-16.857-13.714-16.857h-84c-11.143 0-19.143-8-19.143-19.143v-12c0-11.143 8-18.857 19.143-18.857h98.857c6.857 0 14.572-6.286 15.714-12.285zM350.572 60.572c-10.572 51.428-42.286 214-45.143 225.714-3.428 13.428-8.572 36.857-41.143 36.857h-77.428c-3.143 0-3.429-0.286-6.286 2.857 0 0-2 2.286-121.715 141.143-9.428 10.857-24.857 8.857-30.572 6.572s-15.714-9.143-15.714-28v-402.857c0-16.572 10.286-42.857 45.143-42.857h253.714c37.143 0 47.143 21.143 39.143 60.572zM350.572 60.572l-45.143 225.714c2.857-11.714 34.572-174.286 45.143-225.714z"></path></svg>